<svg width="81" height="80" viewBox="0 0 81 80" fill="none" xmlns="http://www.w3.org/2000/svg">
<rect x="0.548828" width="80" height="80" rx="40" fill="#0B5DC2"/>
<path d="M54.6528 43.7319C54.5886 44.3739 54.2676 44.9517 53.8182 45.401L53.754 45.4652C53.112 45.9788 52.9194 46.8776 53.2404 47.648L53.3046 47.7763C53.4972 48.2257 53.5614 48.7393 53.433 49.2529C53.3688 49.7023 53.112 50.0875 52.7911 50.4084C52.2133 50.9862 52.0207 51.885 52.2775 52.6554C52.3417 52.8479 52.4059 53.1047 52.4059 53.2973C52.4059 54.9023 51.3787 55.8652 50.0948 55.8652H45.8577C45.2799 55.8652 44.7664 55.8652 44.2528 55.8652C35.1367 55.6726 33.917 53.8109 26.7269 53.6183C25.3787 53.5541 24.2874 52.4628 24.2874 51.0504V40.4578C24.2874 39.0455 25.4429 37.8899 26.8553 37.8899C28.4602 37.8899 29.359 37.8899 30.1935 37.8899C34.4306 37.8899 35.8429 33.3961 36.7417 30.764C38.475 25.7566 36.6133 22.2257 38.4108 20.8134C41.7491 18.3097 43.6108 24.7294 43.6108 26.9763C43.6108 28.1961 43.4824 31.9196 43.996 34.1665C44.1886 35.0652 44.959 35.643 45.8577 35.643H51.9565C53.3046 35.643 54.5244 36.7344 54.6528 38.0183C54.717 38.5961 54.5244 39.1739 54.2676 39.6233C53.8182 40.3294 53.8182 41.2282 54.2676 41.9344C54.5244 42.5121 54.717 43.0899 54.6528 43.7319Z" fill="#FDFDFE"/>
</svg>
